<mxfile host="app.diagrams.net" modified="2024-04-09T07:51:35.438Z" agent="Mozilla/5.0 (Macintosh; Intel Mac OS X 10_15_7) AppleWebKit/537.36 (KHTML, like Gecko) Chrome/123.0.0.0 Safari/537.36 Edg/123.0.0.0" etag="Nq6r3FPbSDSDvYoumLbo" version="24.2.2" type="github">
  <diagram name="第 1 页" id="J42jCB9UJMY3eW4XFR9J">
    <mxGraphModel dx="626" dy="418" grid="0" gridSize="10" guides="1" tooltips="1" connect="1" arrows="1" fold="1" page="1" pageScale="1" pageWidth="1169" pageHeight="1654" math="0" shadow="0">
      <root>
        <mxCell id="0" />
        <mxCell id="1" parent="0" />
        <mxCell id="jmN3flxoSIEHDAtT39DZ-64" value="" style="group" vertex="1" connectable="0" parent="1">
          <mxGeometry x="591" y="161.18" width="163" height="190.63" as="geometry" />
        </mxCell>
        <mxCell id="jmN3flxoSIEHDAtT39DZ-45" style="rounded=0;orthogonalLoop=1;jettySize=auto;html=1;exitX=0;exitY=1;exitDx=0;exitDy=0;" edge="1" parent="jmN3flxoSIEHDAtT39DZ-64" source="jmN3flxoSIEHDAtT39DZ-16" target="jmN3flxoSIEHDAtT39DZ-18">
          <mxGeometry relative="1" as="geometry" />
        </mxCell>
        <mxCell id="jmN3flxoSIEHDAtT39DZ-46" style="rounded=0;orthogonalLoop=1;jettySize=auto;html=1;exitX=1;exitY=1;exitDx=0;exitDy=0;" edge="1" parent="jmN3flxoSIEHDAtT39DZ-64" source="jmN3flxoSIEHDAtT39DZ-16" target="jmN3flxoSIEHDAtT39DZ-19">
          <mxGeometry relative="1" as="geometry" />
        </mxCell>
        <mxCell id="jmN3flxoSIEHDAtT39DZ-16" value="head" style="ellipse;whiteSpace=wrap;html=1;aspect=fixed;" vertex="1" parent="jmN3flxoSIEHDAtT39DZ-64">
          <mxGeometry x="65" width="35" height="35" as="geometry" />
        </mxCell>
        <mxCell id="jmN3flxoSIEHDAtT39DZ-17" value="tail" style="ellipse;whiteSpace=wrap;html=1;aspect=fixed;" vertex="1" parent="jmN3flxoSIEHDAtT39DZ-64">
          <mxGeometry x="65" y="155.63" width="35" height="35" as="geometry" />
        </mxCell>
        <mxCell id="jmN3flxoSIEHDAtT39DZ-48" style="rounded=0;orthogonalLoop=1;jettySize=auto;html=1;exitX=0.75;exitY=1;exitDx=0;exitDy=0;entryX=0;entryY=0;entryDx=0;entryDy=0;" edge="1" parent="jmN3flxoSIEHDAtT39DZ-64" source="jmN3flxoSIEHDAtT39DZ-18" target="jmN3flxoSIEHDAtT39DZ-17">
          <mxGeometry relative="1" as="geometry" />
        </mxCell>
        <mxCell id="jmN3flxoSIEHDAtT39DZ-18" value="&lt;span style=&quot;font-size: 10px;&quot;&gt;F&lt;/span&gt;" style="rounded=0;whiteSpace=wrap;html=1;" vertex="1" parent="jmN3flxoSIEHDAtT39DZ-64">
          <mxGeometry x="16" y="76" width="60" height="30" as="geometry" />
        </mxCell>
        <mxCell id="jmN3flxoSIEHDAtT39DZ-19" value="&lt;font style=&quot;font-size: 10px;&quot;&gt;F&lt;/font&gt;" style="rounded=0;whiteSpace=wrap;html=1;" vertex="1" parent="jmN3flxoSIEHDAtT39DZ-64">
          <mxGeometry x="93" y="76" width="60" height="30" as="geometry" />
        </mxCell>
        <mxCell id="jmN3flxoSIEHDAtT39DZ-49" style="rounded=0;orthogonalLoop=1;jettySize=auto;html=1;entryX=0.901;entryY=0.132;entryDx=0;entryDy=0;entryPerimeter=0;exitX=0.25;exitY=1;exitDx=0;exitDy=0;" edge="1" parent="jmN3flxoSIEHDAtT39DZ-64" source="jmN3flxoSIEHDAtT39DZ-19" target="jmN3flxoSIEHDAtT39DZ-17">
          <mxGeometry relative="1" as="geometry">
            <mxPoint x="141" y="120" as="sourcePoint" />
          </mxGeometry>
        </mxCell>
        <mxCell id="jmN3flxoSIEHDAtT39DZ-112" style="rounded=0;orthogonalLoop=1;jettySize=auto;html=1;exitX=0.075;exitY=0.734;exitDx=0;exitDy=0;exitPerimeter=0;" edge="1" parent="1" source="jmN3flxoSIEHDAtT39DZ-116" target="jmN3flxoSIEHDAtT39DZ-119">
          <mxGeometry relative="1" as="geometry" />
        </mxCell>
        <mxCell id="jmN3flxoSIEHDAtT39DZ-113" style="rounded=0;orthogonalLoop=1;jettySize=auto;html=1;exitX=0.776;exitY=0.934;exitDx=0;exitDy=0;exitPerimeter=0;" edge="1" parent="1" source="jmN3flxoSIEHDAtT39DZ-116">
          <mxGeometry relative="1" as="geometry">
            <mxPoint x="1085" y="176" as="targetPoint" />
          </mxGeometry>
        </mxCell>
        <mxCell id="jmN3flxoSIEHDAtT39DZ-114" style="rounded=0;orthogonalLoop=1;jettySize=auto;html=1;exitX=0.305;exitY=0.964;exitDx=0;exitDy=0;entryX=0.5;entryY=0;entryDx=0;entryDy=0;exitPerimeter=0;" edge="1" parent="1" source="jmN3flxoSIEHDAtT39DZ-116" target="jmN3flxoSIEHDAtT39DZ-133">
          <mxGeometry relative="1" as="geometry" />
        </mxCell>
        <mxCell id="jmN3flxoSIEHDAtT39DZ-115" style="rounded=0;orthogonalLoop=1;jettySize=auto;html=1;entryX=0.25;entryY=0;entryDx=0;entryDy=0;" edge="1" parent="1" source="jmN3flxoSIEHDAtT39DZ-116" target="jmN3flxoSIEHDAtT39DZ-142">
          <mxGeometry relative="1" as="geometry" />
        </mxCell>
        <mxCell id="jmN3flxoSIEHDAtT39DZ-116" value="head" style="ellipse;whiteSpace=wrap;html=1;aspect=fixed;" vertex="1" parent="1">
          <mxGeometry x="1045" y="120" width="35" height="35" as="geometry" />
        </mxCell>
        <mxCell id="jmN3flxoSIEHDAtT39DZ-117" value="tail" style="ellipse;whiteSpace=wrap;html=1;aspect=fixed;" vertex="1" parent="1">
          <mxGeometry x="1043" y="354" width="35" height="35" as="geometry" />
        </mxCell>
        <mxCell id="jmN3flxoSIEHDAtT39DZ-118" style="edgeStyle=orthogonalEdgeStyle;rounded=0;orthogonalLoop=1;jettySize=auto;html=1;exitX=0.5;exitY=1;exitDx=0;exitDy=0;entryX=0.5;entryY=0;entryDx=0;entryDy=0;" edge="1" parent="1" source="jmN3flxoSIEHDAtT39DZ-119" target="jmN3flxoSIEHDAtT39DZ-127">
          <mxGeometry relative="1" as="geometry" />
        </mxCell>
        <mxCell id="jmN3flxoSIEHDAtT39DZ-119" value="&lt;span style=&quot;font-size: 10px;&quot;&gt;F&lt;/span&gt;&lt;span style=&quot;font-size: 8.33333px;&quot;&gt;(1)&lt;/span&gt;" style="rounded=0;whiteSpace=wrap;html=1;" vertex="1" parent="1">
          <mxGeometry x="974" y="175" width="40" height="20" as="geometry" />
        </mxCell>
        <mxCell id="jmN3flxoSIEHDAtT39DZ-120" style="rounded=0;orthogonalLoop=1;jettySize=auto;html=1;entryX=0.5;entryY=0;entryDx=0;entryDy=0;exitX=0.5;exitY=1;exitDx=0;exitDy=0;" edge="1" parent="1" source="jmN3flxoSIEHDAtT39DZ-139" target="jmN3flxoSIEHDAtT39DZ-117">
          <mxGeometry relative="1" as="geometry">
            <mxPoint x="1060" y="347" as="sourcePoint" />
          </mxGeometry>
        </mxCell>
        <mxCell id="jmN3flxoSIEHDAtT39DZ-121" value="" style="group" vertex="1" connectable="0" parent="1">
          <mxGeometry x="764" y="183" width="181" height="160" as="geometry" />
        </mxCell>
        <mxCell id="jmN3flxoSIEHDAtT39DZ-122" value="objA" style="shape=umlLifeline;perimeter=lifelinePerimeter;whiteSpace=wrap;html=1;container=1;dropTarget=0;collapsible=0;recursiveResize=0;outlineConnect=0;portConstraint=eastwest;newEdgeStyle={&quot;curved&quot;:0,&quot;rounded&quot;:0};size=21;" vertex="1" parent="jmN3flxoSIEHDAtT39DZ-121">
          <mxGeometry x="25.857142857142858" y="25.523809523809526" width="48.91309523809524" height="127.0857142857143" as="geometry" />
        </mxCell>
        <mxCell id="jmN3flxoSIEHDAtT39DZ-123" value="&lt;font style=&quot;font-size: 10px;&quot;&gt;loop(l,u)&lt;/font&gt;" style="shape=umlFrame;whiteSpace=wrap;html=1;pointerEvents=0;width=44;height=26;" vertex="1" parent="jmN3flxoSIEHDAtT39DZ-121">
          <mxGeometry x="10.019642857142859" y="56.65369649805447" width="160.96071428571432" height="62.879377431906605" as="geometry" />
        </mxCell>
        <mxCell id="jmN3flxoSIEHDAtT39DZ-124" value="example" style="shape=umlFrame;whiteSpace=wrap;html=1;pointerEvents=0;width=60;height=22;" vertex="1" parent="jmN3flxoSIEHDAtT39DZ-121">
          <mxGeometry width="181.00000000000003" height="160" as="geometry" />
        </mxCell>
        <mxCell id="jmN3flxoSIEHDAtT39DZ-125" value="F" style="text;html=1;align=center;verticalAlign=middle;resizable=0;points=[];autosize=1;strokeColor=none;fillColor=none;" vertex="1" parent="jmN3flxoSIEHDAtT39DZ-121">
          <mxGeometry x="85.32857142857144" y="78.48462314454532" width="25" height="26" as="geometry" />
        </mxCell>
        <mxCell id="jmN3flxoSIEHDAtT39DZ-126" value="objB" style="shape=umlLifeline;perimeter=lifelinePerimeter;whiteSpace=wrap;html=1;container=1;dropTarget=0;collapsible=0;recursiveResize=0;outlineConnect=0;portConstraint=eastwest;newEdgeStyle={&quot;curved&quot;:0,&quot;rounded&quot;:0};size=21;" vertex="1" parent="jmN3flxoSIEHDAtT39DZ-121">
          <mxGeometry x="104.2904761904762" y="25.523809523809526" width="48.91309523809524" height="127.0857142857143" as="geometry" />
        </mxCell>
        <mxCell id="jmN3flxoSIEHDAtT39DZ-127" value="F&lt;sub&gt;(2)&lt;/sub&gt;" style="rounded=0;whiteSpace=wrap;html=1;fontSize=10;" vertex="1" parent="1">
          <mxGeometry x="974" y="210" width="40" height="20" as="geometry" />
        </mxCell>
        <mxCell id="jmN3flxoSIEHDAtT39DZ-128" style="edgeStyle=orthogonalEdgeStyle;rounded=0;orthogonalLoop=1;jettySize=auto;html=1;exitX=0.5;exitY=1;exitDx=0;exitDy=0;" edge="1" parent="1">
          <mxGeometry relative="1" as="geometry">
            <mxPoint x="993.5" y="269" as="targetPoint" />
            <mxPoint x="993.5" y="253" as="sourcePoint" />
          </mxGeometry>
        </mxCell>
        <mxCell id="jmN3flxoSIEHDAtT39DZ-129" value="" style="rounded=0;orthogonalLoop=1;jettySize=auto;html=1;exitX=0.5;exitY=1;exitDx=0;exitDy=0;" edge="1" parent="1" source="jmN3flxoSIEHDAtT39DZ-127">
          <mxGeometry relative="1" as="geometry">
            <mxPoint x="994" y="243" as="targetPoint" />
            <mxPoint x="994" y="230" as="sourcePoint" />
          </mxGeometry>
        </mxCell>
        <mxCell id="jmN3flxoSIEHDAtT39DZ-130" style="rounded=0;orthogonalLoop=1;jettySize=auto;html=1;entryX=0.037;entryY=0.274;entryDx=0;entryDy=0;entryPerimeter=0;" edge="1" parent="1" source="jmN3flxoSIEHDAtT39DZ-131" target="jmN3flxoSIEHDAtT39DZ-117">
          <mxGeometry relative="1" as="geometry" />
        </mxCell>
        <mxCell id="jmN3flxoSIEHDAtT39DZ-131" value="&lt;span style=&quot;font-size: 10px;&quot;&gt;F&lt;/span&gt;&lt;span style=&quot;font-size: 8.33333px;&quot;&gt;(l)&lt;/span&gt;" style="rounded=0;whiteSpace=wrap;html=1;" vertex="1" parent="1">
          <mxGeometry x="974" y="269.5" width="40" height="20" as="geometry" />
        </mxCell>
        <mxCell id="jmN3flxoSIEHDAtT39DZ-132" style="edgeStyle=orthogonalEdgeStyle;rounded=0;orthogonalLoop=1;jettySize=auto;html=1;exitX=0.5;exitY=1;exitDx=0;exitDy=0;entryX=0.5;entryY=0;entryDx=0;entryDy=0;" edge="1" parent="1" source="jmN3flxoSIEHDAtT39DZ-133" target="jmN3flxoSIEHDAtT39DZ-134">
          <mxGeometry relative="1" as="geometry" />
        </mxCell>
        <mxCell id="jmN3flxoSIEHDAtT39DZ-133" value="&lt;span style=&quot;font-size: 10px;&quot;&gt;F&lt;/span&gt;&lt;span style=&quot;font-size: 8.33333px;&quot;&gt;(1)&lt;/span&gt;" style="rounded=0;whiteSpace=wrap;html=1;" vertex="1" parent="1">
          <mxGeometry x="1025" y="175" width="40" height="20" as="geometry" />
        </mxCell>
        <mxCell id="jmN3flxoSIEHDAtT39DZ-134" value="F&lt;sub&gt;(2)&lt;/sub&gt;" style="rounded=0;whiteSpace=wrap;html=1;fontSize=10;" vertex="1" parent="1">
          <mxGeometry x="1025" y="210" width="40" height="20" as="geometry" />
        </mxCell>
        <mxCell id="jmN3flxoSIEHDAtT39DZ-135" style="edgeStyle=orthogonalEdgeStyle;rounded=0;orthogonalLoop=1;jettySize=auto;html=1;exitX=0.5;exitY=1;exitDx=0;exitDy=0;" edge="1" parent="1">
          <mxGeometry relative="1" as="geometry">
            <mxPoint x="1044.5" y="269" as="targetPoint" />
            <mxPoint x="1044.5" y="253" as="sourcePoint" />
          </mxGeometry>
        </mxCell>
        <mxCell id="jmN3flxoSIEHDAtT39DZ-136" value="" style="rounded=0;orthogonalLoop=1;jettySize=auto;html=1;exitX=0.5;exitY=1;exitDx=0;exitDy=0;" edge="1" parent="1" source="jmN3flxoSIEHDAtT39DZ-134">
          <mxGeometry relative="1" as="geometry">
            <mxPoint x="1045" y="243" as="targetPoint" />
            <mxPoint x="1045" y="230" as="sourcePoint" />
          </mxGeometry>
        </mxCell>
        <mxCell id="jmN3flxoSIEHDAtT39DZ-137" value="&lt;span style=&quot;font-size: 10px;&quot;&gt;F&lt;/span&gt;&lt;span style=&quot;font-size: 8.33333px;&quot;&gt;(l)&lt;/span&gt;" style="rounded=0;whiteSpace=wrap;html=1;" vertex="1" parent="1">
          <mxGeometry x="1025" y="269.5" width="40" height="20" as="geometry" />
        </mxCell>
        <mxCell id="jmN3flxoSIEHDAtT39DZ-138" style="edgeStyle=orthogonalEdgeStyle;rounded=0;orthogonalLoop=1;jettySize=auto;html=1;exitX=0.5;exitY=1;exitDx=0;exitDy=0;" edge="1" parent="1">
          <mxGeometry relative="1" as="geometry">
            <mxPoint x="1045.5" y="303" as="targetPoint" />
            <mxPoint x="1045.5" y="289.5" as="sourcePoint" />
          </mxGeometry>
        </mxCell>
        <mxCell id="jmN3flxoSIEHDAtT39DZ-139" value="&lt;span style=&quot;font-size: 10px;&quot;&gt;F&lt;/span&gt;&lt;span style=&quot;font-size: 8.33333px;&quot;&gt;(l+1)&lt;/span&gt;" style="rounded=0;whiteSpace=wrap;html=1;" vertex="1" parent="1">
          <mxGeometry x="1025" y="303" width="40" height="20" as="geometry" />
        </mxCell>
        <mxCell id="jmN3flxoSIEHDAtT39DZ-140" value="..." style="text;html=1;align=center;verticalAlign=middle;resizable=0;points=[];autosize=1;strokeColor=none;fillColor=none;" vertex="1" parent="1">
          <mxGeometry x="1073" y="181" width="28" height="26" as="geometry" />
        </mxCell>
        <mxCell id="jmN3flxoSIEHDAtT39DZ-141" style="edgeStyle=orthogonalEdgeStyle;rounded=0;orthogonalLoop=1;jettySize=auto;html=1;exitX=0.5;exitY=1;exitDx=0;exitDy=0;entryX=0.5;entryY=0;entryDx=0;entryDy=0;" edge="1" parent="1" source="jmN3flxoSIEHDAtT39DZ-142" target="jmN3flxoSIEHDAtT39DZ-143">
          <mxGeometry relative="1" as="geometry" />
        </mxCell>
        <mxCell id="jmN3flxoSIEHDAtT39DZ-142" value="&lt;span style=&quot;font-size: 10px;&quot;&gt;F&lt;/span&gt;&lt;span style=&quot;font-size: 8.33333px;&quot;&gt;(1)&lt;/span&gt;" style="rounded=0;whiteSpace=wrap;html=1;" vertex="1" parent="1">
          <mxGeometry x="1109" y="175" width="40" height="20" as="geometry" />
        </mxCell>
        <mxCell id="jmN3flxoSIEHDAtT39DZ-143" value="F&lt;sub&gt;(2)&lt;/sub&gt;" style="rounded=0;whiteSpace=wrap;html=1;fontSize=10;" vertex="1" parent="1">
          <mxGeometry x="1109" y="210" width="40" height="20" as="geometry" />
        </mxCell>
        <mxCell id="jmN3flxoSIEHDAtT39DZ-144" style="edgeStyle=orthogonalEdgeStyle;rounded=0;orthogonalLoop=1;jettySize=auto;html=1;exitX=0.5;exitY=1;exitDx=0;exitDy=0;" edge="1" parent="1">
          <mxGeometry relative="1" as="geometry">
            <mxPoint x="1128.5" y="269" as="targetPoint" />
            <mxPoint x="1128.5" y="253" as="sourcePoint" />
          </mxGeometry>
        </mxCell>
        <mxCell id="jmN3flxoSIEHDAtT39DZ-145" value="" style="rounded=0;orthogonalLoop=1;jettySize=auto;html=1;exitX=0.5;exitY=1;exitDx=0;exitDy=0;" edge="1" parent="1" source="jmN3flxoSIEHDAtT39DZ-143">
          <mxGeometry relative="1" as="geometry">
            <mxPoint x="1129" y="243" as="targetPoint" />
            <mxPoint x="1129" y="230" as="sourcePoint" />
          </mxGeometry>
        </mxCell>
        <mxCell id="jmN3flxoSIEHDAtT39DZ-146" value="&lt;span style=&quot;font-size: 10px;&quot;&gt;F&lt;/span&gt;&lt;span style=&quot;font-size: 8.33333px;&quot;&gt;(l)&lt;/span&gt;" style="rounded=0;whiteSpace=wrap;html=1;" vertex="1" parent="1">
          <mxGeometry x="1111" y="269.5" width="40" height="20" as="geometry" />
        </mxCell>
        <mxCell id="jmN3flxoSIEHDAtT39DZ-147" style="edgeStyle=orthogonalEdgeStyle;rounded=0;orthogonalLoop=1;jettySize=auto;html=1;exitX=0.5;exitY=1;exitDx=0;exitDy=0;" edge="1" parent="1">
          <mxGeometry relative="1" as="geometry">
            <mxPoint x="1130.5" y="328" as="targetPoint" />
            <mxPoint x="1130.5" y="314" as="sourcePoint" />
          </mxGeometry>
        </mxCell>
        <mxCell id="jmN3flxoSIEHDAtT39DZ-148" value="&lt;span style=&quot;font-size: 10px;&quot;&gt;F&lt;/span&gt;&lt;span style=&quot;font-size: 8.33333px;&quot;&gt;(u)&lt;/span&gt;" style="rounded=0;whiteSpace=wrap;html=1;" vertex="1" parent="1">
          <mxGeometry x="1111" y="328.5" width="40" height="20" as="geometry" />
        </mxCell>
        <mxCell id="jmN3flxoSIEHDAtT39DZ-149" value="..." style="text;html=1;align=center;verticalAlign=middle;resizable=0;points=[];autosize=1;strokeColor=none;fillColor=none;" vertex="1" parent="1">
          <mxGeometry x="1116" y="292" width="28" height="26" as="geometry" />
        </mxCell>
        <mxCell id="jmN3flxoSIEHDAtT39DZ-150" value="" style="rounded=0;orthogonalLoop=1;jettySize=auto;html=1;exitX=0.5;exitY=1;exitDx=0;exitDy=0;jumpSize=11;" edge="1" parent="1">
          <mxGeometry relative="1" as="geometry">
            <mxPoint x="1130" y="304" as="targetPoint" />
            <mxPoint x="1130" y="291" as="sourcePoint" />
          </mxGeometry>
        </mxCell>
        <mxCell id="jmN3flxoSIEHDAtT39DZ-151" value="..." style="text;html=1;align=center;verticalAlign=middle;resizable=0;points=[];autosize=1;strokeColor=none;fillColor=none;" vertex="1" parent="1">
          <mxGeometry x="1073" y="213" width="28" height="26" as="geometry" />
        </mxCell>
        <mxCell id="jmN3flxoSIEHDAtT39DZ-152" value="..." style="text;html=1;align=center;verticalAlign=middle;resizable=0;points=[];autosize=1;strokeColor=none;fillColor=none;" vertex="1" parent="1">
          <mxGeometry x="1073" y="247" width="28" height="26" as="geometry" />
        </mxCell>
        <mxCell id="jmN3flxoSIEHDAtT39DZ-153" style="rounded=0;orthogonalLoop=1;jettySize=auto;html=1;entryX=1;entryY=0;entryDx=0;entryDy=0;" edge="1" parent="1" source="jmN3flxoSIEHDAtT39DZ-148" target="jmN3flxoSIEHDAtT39DZ-117">
          <mxGeometry relative="1" as="geometry" />
        </mxCell>
        <mxCell id="jmN3flxoSIEHDAtT39DZ-154" value="..." style="text;html=1;align=center;verticalAlign=middle;resizable=0;points=[];autosize=1;strokeColor=none;fillColor=none;" vertex="1" parent="1">
          <mxGeometry x="980" y="232" width="28" height="26" as="geometry" />
        </mxCell>
        <mxCell id="jmN3flxoSIEHDAtT39DZ-155" value="..." style="text;html=1;align=center;verticalAlign=middle;resizable=0;points=[];autosize=1;strokeColor=none;fillColor=none;" vertex="1" parent="1">
          <mxGeometry x="1031" y="233" width="28" height="26" as="geometry" />
        </mxCell>
        <mxCell id="jmN3flxoSIEHDAtT39DZ-156" value="..." style="text;html=1;align=center;verticalAlign=middle;resizable=0;points=[];autosize=1;strokeColor=none;fillColor=none;" vertex="1" parent="1">
          <mxGeometry x="1115" y="233" width="28" height="26" as="geometry" />
        </mxCell>
        <mxCell id="jmN3flxoSIEHDAtT39DZ-157" style="rounded=0;orthogonalLoop=1;jettySize=auto;html=1;" edge="1" parent="1">
          <mxGeometry relative="1" as="geometry">
            <mxPoint x="1084" y="324" as="sourcePoint" />
            <mxPoint x="1069" y="354.5" as="targetPoint" />
          </mxGeometry>
        </mxCell>
        <mxCell id="jmN3flxoSIEHDAtT39DZ-158" value="..." style="text;html=1;align=center;verticalAlign=middle;resizable=0;points=[];autosize=1;strokeColor=none;fillColor=none;" vertex="1" parent="1">
          <mxGeometry x="1073" y="282" width="28" height="26" as="geometry" />
        </mxCell>
        <mxCell id="jmN3flxoSIEHDAtT39DZ-192" value="" style="group" vertex="1" connectable="0" parent="1">
          <mxGeometry x="20" y="175.00000000000006" width="379.8599678456592" height="212.69146351136948" as="geometry" />
        </mxCell>
        <mxCell id="jmN3flxoSIEHDAtT39DZ-191" value="" style="group" vertex="1" connectable="0" parent="jmN3flxoSIEHDAtT39DZ-192">
          <mxGeometry x="175" width="204.85996784565918" height="212.69146351136948" as="geometry" />
        </mxCell>
        <mxCell id="jmN3flxoSIEHDAtT39DZ-160" value="" style="html=1;shadow=0;dashed=0;align=center;verticalAlign=middle;shape=mxgraph.arrows2.arrow;dy=0.66;dx=17.61;notch=0;container=0;" vertex="1" parent="jmN3flxoSIEHDAtT39DZ-191">
          <mxGeometry x="107.4241800643087" y="83.33147540983595" width="35.443729903536976" height="21.303278688524593" as="geometry" />
        </mxCell>
        <mxCell id="jmN3flxoSIEHDAtT39DZ-170" value="" style="rounded=0;whiteSpace=wrap;html=1;dashed=1;dashPattern=8 8;container=0;" vertex="1" parent="jmN3flxoSIEHDAtT39DZ-191">
          <mxGeometry x="10" y="64.51999999999992" width="83" height="43" as="geometry" />
        </mxCell>
        <mxCell id="jmN3flxoSIEHDAtT39DZ-171" style="rounded=0;orthogonalLoop=1;jettySize=auto;html=1;exitX=0.5;exitY=1;exitDx=0;exitDy=0;" edge="1" parent="jmN3flxoSIEHDAtT39DZ-191" source="jmN3flxoSIEHDAtT39DZ-173" target="jmN3flxoSIEHDAtT39DZ-176">
          <mxGeometry relative="1" as="geometry">
            <mxPoint x="66.20739549839232" y="-12.458582760444244" as="sourcePoint" />
          </mxGeometry>
        </mxCell>
        <mxCell id="jmN3flxoSIEHDAtT39DZ-172" style="rounded=0;orthogonalLoop=1;jettySize=auto;html=1;exitX=0.5;exitY=1;exitDx=0;exitDy=0;entryX=0.5;entryY=0;entryDx=0;entryDy=0;" edge="1" parent="jmN3flxoSIEHDAtT39DZ-191" source="jmN3flxoSIEHDAtT39DZ-179" target="jmN3flxoSIEHDAtT39DZ-177">
          <mxGeometry relative="1" as="geometry">
            <mxPoint x="130.42861736334407" y="133.23582496033845" as="sourcePoint" />
          </mxGeometry>
        </mxCell>
        <mxCell id="jmN3flxoSIEHDAtT39DZ-173" value="&lt;font style=&quot;font-size: 10px;&quot;&gt;head&lt;/font&gt;" style="ellipse;whiteSpace=wrap;html=1;aspect=fixed;container=0;" vertex="1" parent="jmN3flxoSIEHDAtT39DZ-191">
          <mxGeometry x="37.74443729903538" y="-18" width="29.17622950819672" height="29.17622950819672" as="geometry" />
        </mxCell>
        <mxCell id="jmN3flxoSIEHDAtT39DZ-174" value="&lt;font style=&quot;font-size: 10px;&quot;&gt;tail&lt;/font&gt;" style="ellipse;whiteSpace=wrap;html=1;aspect=fixed;container=0;" vertex="1" parent="jmN3flxoSIEHDAtT39DZ-191">
          <mxGeometry x="16.996334405144694" y="73.55377842411411" width="29.17622950819672" height="29.17622950819672" as="geometry" />
        </mxCell>
        <mxCell id="jmN3flxoSIEHDAtT39DZ-175" style="rounded=0;orthogonalLoop=1;jettySize=auto;html=1;exitX=0.5;exitY=1;exitDx=0;exitDy=0;entryX=0.5;entryY=0;entryDx=0;entryDy=0;" edge="1" parent="jmN3flxoSIEHDAtT39DZ-191" source="jmN3flxoSIEHDAtT39DZ-176" target="jmN3flxoSIEHDAtT39DZ-174">
          <mxGeometry relative="1" as="geometry" />
        </mxCell>
        <mxCell id="jmN3flxoSIEHDAtT39DZ-176" value="&lt;span style=&quot;font-size: 10px;&quot;&gt;F&lt;/span&gt;" style="rounded=0;whiteSpace=wrap;html=1;container=0;" vertex="1" parent="jmN3flxoSIEHDAtT39DZ-191">
          <mxGeometry x="27.336655948553073" y="27.036889212057076" width="50" height="30" as="geometry" />
        </mxCell>
        <mxCell id="jmN3flxoSIEHDAtT39DZ-177" value="&lt;font style=&quot;font-size: 10px;&quot;&gt;F&#39;&lt;/font&gt;" style="rounded=0;whiteSpace=wrap;html=1;container=0;" vertex="1" parent="jmN3flxoSIEHDAtT39DZ-191">
          <mxGeometry x="27.336655948553073" y="119.19299048122679" width="50" height="30" as="geometry" />
        </mxCell>
        <mxCell id="jmN3flxoSIEHDAtT39DZ-178" style="rounded=0;orthogonalLoop=1;jettySize=auto;html=1;exitX=0.5;exitY=1;exitDx=0;exitDy=0;entryX=0.5;entryY=0;entryDx=0;entryDy=0;" edge="1" parent="jmN3flxoSIEHDAtT39DZ-191" source="jmN3flxoSIEHDAtT39DZ-177" target="jmN3flxoSIEHDAtT39DZ-180">
          <mxGeometry relative="1" as="geometry">
            <mxPoint x="67.0524115755627" y="201.03638517979897" as="targetPoint" />
          </mxGeometry>
        </mxCell>
        <mxCell id="jmN3flxoSIEHDAtT39DZ-179" value="&lt;font style=&quot;font-size: 10px;&quot;&gt;head&lt;/font&gt;" style="ellipse;whiteSpace=wrap;html=1;aspect=fixed;container=0;" vertex="1" parent="jmN3flxoSIEHDAtT39DZ-191">
          <mxGeometry x="59.99501607717042" y="73.96680988894758" width="28.34262295081967" height="28.34262295081967" as="geometry" />
        </mxCell>
        <mxCell id="jmN3flxoSIEHDAtT39DZ-180" value="tail" style="ellipse;whiteSpace=wrap;html=1;aspect=fixed;container=0;" vertex="1" parent="jmN3flxoSIEHDAtT39DZ-191">
          <mxGeometry x="37.7394533762058" y="165.5152340031728" width="29.17622950819672" height="29.17622950819672" as="geometry" />
        </mxCell>
        <mxCell id="jmN3flxoSIEHDAtT39DZ-182" style="rounded=0;orthogonalLoop=1;jettySize=auto;html=1;exitX=0.5;exitY=1;exitDx=0;exitDy=0;entryX=0.5;entryY=0;entryDx=0;entryDy=0;" edge="1" parent="jmN3flxoSIEHDAtT39DZ-191" source="jmN3flxoSIEHDAtT39DZ-183" target="jmN3flxoSIEHDAtT39DZ-185">
          <mxGeometry relative="1" as="geometry">
            <mxPoint x="184.48927423059263" y="7.119448468674534" as="sourcePoint" />
          </mxGeometry>
        </mxCell>
        <mxCell id="jmN3flxoSIEHDAtT39DZ-183" value="head" style="ellipse;whiteSpace=wrap;html=1;aspect=fixed;fontSize=10;container=0;" vertex="1" parent="jmN3flxoSIEHDAtT39DZ-191">
          <mxGeometry x="156.45247588424434" y="-9.387540983606584" width="28.8061096846402" height="28.8061096846402" as="geometry" />
        </mxCell>
        <mxCell id="jmN3flxoSIEHDAtT39DZ-184" style="rounded=0;orthogonalLoop=1;jettySize=auto;html=1;entryX=0.5;entryY=0;entryDx=0;entryDy=0;" edge="1" parent="jmN3flxoSIEHDAtT39DZ-191" source="jmN3flxoSIEHDAtT39DZ-185" target="jmN3flxoSIEHDAtT39DZ-186">
          <mxGeometry relative="1" as="geometry" />
        </mxCell>
        <mxCell id="jmN3flxoSIEHDAtT39DZ-185" value="&lt;span style=&quot;font-size: 10px;&quot;&gt;F&lt;/span&gt;" style="rounded=0;whiteSpace=wrap;html=1;container=0;" vertex="1" parent="jmN3flxoSIEHDAtT39DZ-191">
          <mxGeometry x="145.85996784565913" y="36.658271699072316" width="50" height="30" as="geometry" />
        </mxCell>
        <mxCell id="jmN3flxoSIEHDAtT39DZ-194" value="" style="edgeStyle=orthogonalEdgeStyle;rounded=0;orthogonalLoop=1;jettySize=auto;html=1;" edge="1" parent="jmN3flxoSIEHDAtT39DZ-191" source="jmN3flxoSIEHDAtT39DZ-186" target="jmN3flxoSIEHDAtT39DZ-185">
          <mxGeometry relative="1" as="geometry" />
        </mxCell>
        <mxCell id="jmN3flxoSIEHDAtT39DZ-186" value="&lt;font style=&quot;font-size: 10px;&quot;&gt;F&#39;&lt;/font&gt;" style="rounded=0;whiteSpace=wrap;html=1;container=0;" vertex="1" parent="jmN3flxoSIEHDAtT39DZ-191">
          <mxGeometry x="145.85996784565913" y="108.75595247172447" width="50" height="30" as="geometry" />
        </mxCell>
        <mxCell id="jmN3flxoSIEHDAtT39DZ-187" style="rounded=0;orthogonalLoop=1;jettySize=auto;html=1;exitX=0.5;exitY=1;exitDx=0;exitDy=0;entryX=0.5;entryY=0;entryDx=0;entryDy=0;" edge="1" parent="jmN3flxoSIEHDAtT39DZ-191" source="jmN3flxoSIEHDAtT39DZ-186" target="jmN3flxoSIEHDAtT39DZ-188">
          <mxGeometry relative="1" as="geometry">
            <mxPoint x="185.3477032613689" y="192.15968865167105" as="targetPoint" />
          </mxGeometry>
        </mxCell>
        <mxCell id="jmN3flxoSIEHDAtT39DZ-188" value="tail" style="ellipse;whiteSpace=wrap;html=1;aspect=fixed;fontSize=10;container=0;" vertex="1" parent="jmN3flxoSIEHDAtT39DZ-191">
          <mxGeometry x="156.4549839228295" y="161.30509276909385" width="28.8061096846402" height="28.8061096846402" as="geometry" />
        </mxCell>
        <mxCell id="jmN3flxoSIEHDAtT39DZ-162" value="objA" style="shape=umlLifeline;perimeter=lifelinePerimeter;whiteSpace=wrap;html=1;container=0;dropTarget=0;collapsible=0;recursiveResize=0;outlineConnect=0;portConstraint=eastwest;newEdgeStyle={&quot;curved&quot;:0,&quot;rounded&quot;:0};size=21;" vertex="1" parent="jmN3flxoSIEHDAtT39DZ-192">
          <mxGeometry x="25.285714285714285" y="33.48095238095235" width="47.832142857142856" height="131.85142857142856" as="geometry" />
        </mxCell>
        <mxCell id="jmN3flxoSIEHDAtT39DZ-163" value="" style="shape=umlFrame;whiteSpace=wrap;html=1;pointerEvents=0;width=33;height=22;container=0;" vertex="1" parent="jmN3flxoSIEHDAtT39DZ-192">
          <mxGeometry x="9.802428571428571" y="65.77629629629627" width="157.93457142857142" height="38.71576719576719" as="geometry" />
        </mxCell>
        <mxCell id="jmN3flxoSIEHDAtT39DZ-164" value="example" style="shape=umlFrame;whiteSpace=wrap;html=1;pointerEvents=0;width=60;height=22;container=0;" vertex="1" parent="jmN3flxoSIEHDAtT39DZ-192">
          <mxGeometry y="6.999999999999972" width="177.00000000000003" height="166" as="geometry" />
        </mxCell>
        <mxCell id="jmN3flxoSIEHDAtT39DZ-165" value="F" style="text;html=1;align=center;verticalAlign=middle;resizable=0;points=[];autosize=1;strokeColor=none;fillColor=none;container=0;" vertex="1" parent="jmN3flxoSIEHDAtT39DZ-192">
          <mxGeometry x="75.9957142857143" y="72.13869598336524" width="25" height="26" as="geometry" />
        </mxCell>
        <mxCell id="jmN3flxoSIEHDAtT39DZ-166" value="objB" style="shape=umlLifeline;perimeter=lifelinePerimeter;whiteSpace=wrap;html=1;container=0;dropTarget=0;collapsible=0;recursiveResize=0;outlineConnect=0;portConstraint=eastwest;newEdgeStyle={&quot;curved&quot;:0,&quot;rounded&quot;:0};size=21;" vertex="1" parent="jmN3flxoSIEHDAtT39DZ-192">
          <mxGeometry x="101.98571428571428" y="33.48095238095236" width="47.832142857142856" height="131.85142857142856" as="geometry" />
        </mxCell>
        <mxCell id="jmN3flxoSIEHDAtT39DZ-167" value="" style="shape=umlFrame;whiteSpace=wrap;html=1;pointerEvents=0;width=33;height=22;container=0;" vertex="1" parent="jmN3flxoSIEHDAtT39DZ-192">
          <mxGeometry x="9.532714285714288" y="114.15343915343914" width="157.93457142857142" height="38.71576719576719" as="geometry" />
        </mxCell>
        <mxCell id="jmN3flxoSIEHDAtT39DZ-168" value="F&lt;span style=&quot;font-size: 10px;&quot;&gt;&#39;&lt;/span&gt;" style="text;html=1;align=center;verticalAlign=middle;resizable=0;points=[];autosize=1;strokeColor=none;fillColor=none;container=0;" vertex="1" parent="jmN3flxoSIEHDAtT39DZ-192">
          <mxGeometry x="75.266" y="122.53245259712183" width="27" height="26" as="geometry" />
        </mxCell>
        <mxCell id="jmN3flxoSIEHDAtT39DZ-1" value="objA" style="shape=umlLifeline;perimeter=lifelinePerimeter;whiteSpace=wrap;html=1;container=0;dropTarget=0;collapsible=0;recursiveResize=0;outlineConnect=0;portConstraint=eastwest;newEdgeStyle={&quot;curved&quot;:0,&quot;rounded&quot;:0};size=21;" vertex="1" parent="1">
          <mxGeometry x="446.7142857142857" y="205.52380952380952" width="46.75119047619048" height="127.08571428571429" as="geometry" />
        </mxCell>
        <mxCell id="jmN3flxoSIEHDAtT39DZ-3" value="alt" style="shape=umlFrame;whiteSpace=wrap;html=1;pointerEvents=0;width=36;height=22;container=0;" vertex="1" parent="1">
          <mxGeometry x="431.57678571428573" y="236.65369649805447" width="153.84642857142862" height="62.879377431906605" as="geometry" />
        </mxCell>
        <mxCell id="jmN3flxoSIEHDAtT39DZ-4" value="example" style="shape=umlFrame;whiteSpace=wrap;html=1;pointerEvents=0;width=60;height=22;container=0;" vertex="1" parent="1">
          <mxGeometry x="422" y="180" width="173.00000000000003" height="160" as="geometry" />
        </mxCell>
        <mxCell id="jmN3flxoSIEHDAtT39DZ-8" value="&lt;font style=&quot;font-size: 10px;&quot;&gt;F&#39;&lt;/font&gt;" style="text;html=1;align=center;verticalAlign=middle;resizable=0;points=[];autosize=1;strokeColor=none;fillColor=none;container=0;" vertex="1" parent="1">
          <mxGeometry x="495.68595238095236" y="271.5017660016882" width="26" height="26" as="geometry" />
        </mxCell>
        <mxCell id="jmN3flxoSIEHDAtT39DZ-9" value="&lt;span style=&quot;&quot;&gt;&lt;font style=&quot;font-size: 10px;&quot;&gt;F&lt;/font&gt;&lt;/span&gt;" style="text;html=1;align=center;verticalAlign=middle;resizable=0;points=[];autosize=1;strokeColor=none;fillColor=none;container=0;" vertex="1" parent="1">
          <mxGeometry x="496.49595238095236" y="241.49107446523792" width="24" height="26" as="geometry" />
        </mxCell>
        <mxCell id="jmN3flxoSIEHDAtT39DZ-15" value="" style="endArrow=none;dashed=1;html=1;rounded=0;entryX=1.005;entryY=0.536;entryDx=0;entryDy=0;entryPerimeter=0;" edge="1" parent="1" target="jmN3flxoSIEHDAtT39DZ-3">
          <mxGeometry width="50" height="50" relative="1" as="geometry">
            <mxPoint x="434.35714285714283" y="270.27237354085605" as="sourcePoint" />
            <mxPoint x="690.7678571428571" y="269.64980544747084" as="targetPoint" />
            <Array as="points">
              <mxPoint x="567.8142857142857" y="269.95486381322957" />
            </Array>
          </mxGeometry>
        </mxCell>
        <mxCell id="jmN3flxoSIEHDAtT39DZ-63" value="objB" style="shape=umlLifeline;perimeter=lifelinePerimeter;whiteSpace=wrap;html=1;container=0;dropTarget=0;collapsible=0;recursiveResize=0;outlineConnect=0;portConstraint=eastwest;newEdgeStyle={&quot;curved&quot;:0,&quot;rounded&quot;:0};size=21;" vertex="1" parent="1">
          <mxGeometry x="521.6809523809524" y="205.52380952380952" width="46.75119047619048" height="127.08571428571429" as="geometry" />
        </mxCell>
      </root>
    </mxGraphModel>
  </diagram>
</mxfile>
